<svg xmlns="http://www.w3.org/2000/svg" viewBox="0 0 155 203">
  <g transform="translate(0,203) scale(0.1,-0.1)" fill="#b54614" stroke="none">
    <path d="M40 1644 l0 -285 75 -79 75 -79 0 -576 0 -576 143 3 142 3 5 215 c4 190 7 220 26 260 36 77 142 150 242 166 75 12 224 -66 266 -140 35 -60 46 -138 46 -333 l0 -174 143 3 142 3 3 577 2 577 70 71 70 72 0 289 0 289 -70 0 -70 0 0 -70 0 -70 -40 0 -40 0 0 70 0 70 -105 0 -105 0 0 -70 0 -70 -75 0 -75 0 0 70 0 70 -145 0 -145 0 0 -70 0 -70 -70 0 -70 0 0 70 0 70 -110 0 -110 0 0 -70 0 -70 -35 0 -35 0 0 70 0 70 -75 0 -75 0 0 -286z m870 -579 l0 -145 -145 0 -145 0 0 145 0 145 145 0 145 0 0 -145z"/>
    <path d="M581 96 c-7 -9 -17 -14 -20 -11 -4 2 -8 -2 -8 -10 0 -13 34 -15 214 -15 117 0 213 4 213 9 0 29 -37 36 -210 39 -150 3 -178 1 -189 -12z"/>
  </g>
</svg>
